<svg id="Layer_1" data-name="Layer 1" xmlns="http://www.w3.org/2000/svg" viewBox="0 0 2165.18 400.94"><defs><style>.cls-1{fill:navy;}.cls-2{fill:#ef7e19;}.cls-3{fill:#098036;}.cls-4{fill:#ff8a00;}.cls-5{fill:#fff;}</style></defs><title>SAI_footer_logo</title><path class="cls-1" d="M.51,271.74C23.1,288.22,53.05,296,91.12,296c31,0,53.22-5,66.26-15.13a48.41,48.41,0,0,0,11.71-13.24c9.47-15.7,7.67-37,7.67-37-.9-14.79-6.27-26.07-13.64-33-3.92-3.92-9.4-7.05-16.7-9.92-14.34-5.47-25.3-7.56-46.95-10.69-14.61-2.09-20.35-3.13-29.48-5.48a43.19,43.19,0,0,1-9.91-3.91,15.93,15.93,0,0,1-7.3-13.56c0-14.61,8.35-20.09,37.56-20.09l43.26-.12c16.45,0,29.49-9.91,35.1-25.36A89.09,89.09,0,0,0,171,98.36a1.55,1.55,0,0,0-1.54-1.83l-87.34.06C32.68,98.3,10.26,115.38,10.26,155.1c0,20.6,5.74,33.91,20.09,42.52a102.75,102.75,0,0,0,24,9.65c8.61,2.34,20.09,4.43,34.43,6.52,17,2.35,29,5.21,35.74,8.08s10.17,7.83,10.17,15.13c0,8.61-2.87,14.61-8.87,18.26-6,3.4-18,5.22-36,5.22-16.58,0-28.61-3.12-43.36-7.63-23.8-7.27-34.3-.79-41.77,10l-4.5,7.25A1.25,1.25,0,0,0,.51,271.74Z"/><path class="cls-1" d="M318.69,261.53c.88,2.17,3.18,7.69,5.94,13,10.54,20.35,22.8,21.21,49.78,21.21a.43.43,0,0,0,.39-.62L297.44,97.62a1.73,1.73,0,0,0-1.61-1.09h-35.1a1.56,1.56,0,0,0-1.46,1L181.66,295.14a.43.43,0,0,0,.4.62c27.82,0,39.23-.86,49.77-21.21,2.76-5.33,5.06-10.85,5.95-13a1.53,1.53,0,0,1,1.44-1h78A1.56,1.56,0,0,1,318.69,261.53Zm-15.27-36.46H253.27a.83.83,0,0,1-.78-1.14l25.06-63.73a.84.84,0,0,1,1.57,0l25.07,63.74A.83.83,0,0,1,303.42,225.07Z"/><path class="cls-1" d="M414,96.42c-11.2,0-17.43,7.5-17.43,17.88,0,0-.38,170.63-.38,180.75a.61.61,0,0,0,.6.6,47.75,47.75,0,0,0,13.74-1.22c9.16-2.24,15.41-7,19.41-13.2,4.34-6.74,6.07-15,6.07-22.72V97a.6.6,0,0,0-.6-.6Z"/><path class="cls-1" d="M392.42,43.32A6.7,6.7,0,1,0,390.69,34,6.71,6.71,0,0,0,392.42,43.32Z"/><path class="cls-1" d="M392.42,43.32A6.7,6.7,0,1,0,390.69,34,6.7,6.7,0,0,0,392.42,43.32Z"/><path class="cls-2" d="M362.24,58.77c7.3,11.34,6.79,17.29,4.94,22.15.56-.69,1.1-1.39,1.63-2.11,8.13-11.17,5.45-21.41,3.45-26.35-3.23-8-11.58-18.77-17.76-28.23C353,22,351.73,20,350.64,18.3c-.72-1.09-1.4-2.14-2-3.16l-1.05-1.64.19.25A95.22,95.22,0,0,1,340.52,0c-10.8,14.29,4.93,35.16,4.93,35.16Z"/><path class="cls-3" d="M344.87,76.79c2,2.87,5.88,8.65,5.52,12.64a8.77,8.77,0,0,1-4.52,7.09,67,67,0,0,0,10.76-5.69,17.65,17.65,0,0,0,1.55-19.34c-2-3.82-4.16-6.73-9.45-14.7,0,0-8.3-11.5-13.13-21.68,0,0-11.64,12.56.2,29.75C335.8,64.86,341.54,72.12,344.87,76.79Z"/><path class="cls-1" d="M397.14,50c-.38,0-.52,0-1.53,0-5.05.08-22.34-2.5-48.06-36.53,0,0,2.93,4.58,6.95,10.73,6.18,9.46,14.53,20.26,17.76,28.23,2,4.94,4.68,15.18-3.45,26.35-8.69,11.93-21.67,18.68-40.27,22A129.44,129.44,0,0,0,372.8,87.26s27.33-12.33,49.44-41.78c0,0,10.37-14.38,14.11-24C436.35,21.51,417.93,48.48,397.14,50Z"/><path class="cls-1" d="M9.22,383.06C5.87,382.2,5,381.79,5,380.51v-.05c0-.94.86-1.69,2.49-1.69a9.12,9.12,0,0,1,5.05,1.91l2.21-3.21A11.23,11.23,0,0,0,7.59,375c-4,0-6.79,2.33-6.79,5.85v0c0,3.85,2.52,4.93,6.43,5.93,3.24.83,3.91,1.38,3.91,2.46v.06c0,1.14-1.06,1.83-2.8,1.83a8.84,8.84,0,0,1-5.79-2.36l-2.52,3a12.32,12.32,0,0,0,8.22,3.1c4.19,0,7.12-2.16,7.12-6v-.06C15.37,385.5,13.16,384.09,9.22,383.06Z"/><path class="cls-1" d="M27,375.28H19.09v19.39h4.27v-5.82H26.6c4.34,0,7.83-2.33,7.83-6.81V382C34.43,378,31.64,375.28,27,375.28Zm3.1,6.84c0,1.66-1.24,2.94-3.38,2.94H23.36v-5.93h3.29c2.13,0,3.46,1,3.46,2.94Z"/><path class="cls-1" d="M47.07,375a10,10,0,0,0-10.33,10v0A9.93,9.93,0,0,0,47,395a10,10,0,0,0,10.33-10v-.06A9.94,9.94,0,0,0,47.07,375ZM52.89,385a5.8,5.8,0,0,1-5.82,6A5.89,5.89,0,0,1,41.2,385v-.06a5.8,5.8,0,0,1,5.82-6,5.89,5.89,0,0,1,5.87,6.1Z"/><path class="cls-1" d="M77.32,381.73v-.05a6.08,6.08,0,0,0-1.66-4.43,7.69,7.69,0,0,0-5.65-2H61.15v19.39h4.27v-6.2h3.35l4.15,6.2h5l-4.74-6.93A6,6,0,0,0,77.32,381.73ZM73,382c0,1.63-1.19,2.74-3.26,2.74H65.42v-5.57h4.23c2.08,0,3.35.94,3.35,2.77Z"/><polygon class="cls-1" points="79.8 379.21 85.69 379.21 85.69 394.67 89.96 394.67 89.96 379.21 95.86 379.21 95.86 375.28 79.8 375.28 79.8 379.21"/><path class="cls-1" d="M106.58,383.06c-3.35-.86-4.18-1.27-4.18-2.55v-.05c0-.94.86-1.69,2.49-1.69a9.12,9.12,0,0,1,5,1.91l2.21-3.21A11.23,11.23,0,0,0,105,375c-4,0-6.79,2.33-6.79,5.85v0c0,3.85,2.52,4.93,6.43,5.93,3.24.83,3.91,1.38,3.91,2.46v.06c0,1.14-1.06,1.83-2.8,1.83a8.84,8.84,0,0,1-5.79-2.36l-2.52,3a12.32,12.32,0,0,0,8.22,3.1c4.19,0,7.12-2.16,7.12-6v-.06C112.73,385.5,110.52,384.09,106.58,383.06Z"/><path class="cls-1" d="M131.41,375.14l-8.31,19.53h4.35l1.77-4.35h8.2l1.77,4.35h4.46l-8.31-19.53Zm-.66,11.41,2.57-6.28,2.58,6.28Z"/><path class="cls-1" d="M158.28,386.39c0,3.07-1.57,4.65-4.18,4.65s-4.18-1.63-4.18-4.79v-11h-4.27v11.08c0,5.71,3.19,8.61,8.4,8.61s8.5-2.88,8.5-8.75V375.28h-4.27Z"/><polygon class="cls-1" points="165.52 379.21 171.42 379.21 171.42 394.67 175.68 394.67 175.68 379.21 181.59 379.21 181.59 375.28 165.52 375.28 165.52 379.21"/><polygon class="cls-1" points="196.99 382.95 189.12 382.95 189.12 375.28 184.86 375.28 184.86 394.67 189.12 394.67 189.12 386.89 196.99 386.89 196.99 394.67 201.25 394.67 201.25 375.28 196.99 375.28 196.99 382.95"/><path class="cls-1" d="M215.39,375a10,10,0,0,0-10.33,10v0a10.3,10.3,0,0,0,20.6,0v-.06A9.93,9.93,0,0,0,215.39,375ZM221.2,385a5.8,5.8,0,0,1-5.81,6,5.88,5.88,0,0,1-5.87-6.09v-.06a5.8,5.8,0,0,1,5.81-6,5.89,5.89,0,0,1,5.87,6.1Z"/><path class="cls-1" d="M245.64,381.73v-.05a6.08,6.08,0,0,0-1.66-4.43,7.69,7.69,0,0,0-5.65-2h-8.86v19.39h4.26v-6.2h3.35l4.16,6.2h5l-4.73-6.93A6,6,0,0,0,245.64,381.73Zm-4.32.23c0,1.63-1.19,2.74-3.27,2.74h-4.32v-5.57H238c2.08,0,3.35.94,3.35,2.77Z"/><rect class="cls-1" x="249.69" y="375.28" width="4.27" height="19.39"/><polygon class="cls-1" points="257.42 379.21 263.32 379.21 263.32 394.67 267.59 394.67 267.59 379.21 273.49 379.21 273.49 375.28 257.42 375.28 257.42 379.21"/><polygon class="cls-1" points="284.38 383.06 279.75 375.28 274.77 375.28 282.22 387.02 282.22 394.67 286.48 394.67 286.48 386.94 293.93 375.28 289.09 375.28 284.38 383.06"/><path class="cls-1" d="M314.38,375a10,10,0,0,0-10.33,10v0a10.31,10.31,0,0,0,20.61,0v-.06A9.94,9.94,0,0,0,314.38,375ZM320.2,385a5.8,5.8,0,0,1-5.82,6,5.89,5.89,0,0,1-5.87-6.09v-.06a5.8,5.8,0,0,1,5.82-6,5.89,5.89,0,0,1,5.87,6.1Z"/><polygon class="cls-1" points="328.46 394.67 332.73 394.67 332.73 387.16 341.98 387.16 341.98 383.29 332.73 383.29 332.73 379.16 343.23 379.16 343.23 375.28 328.46 375.28 328.46 394.67"/><rect class="cls-1" x="355.14" y="375.28" width="4.27" height="19.39"/><polygon class="cls-1" points="377.28 387.22 368.19 375.28 364.26 375.28 364.26 394.67 368.47 394.67 368.47 382.34 377.86 394.67 381.49 394.67 381.49 375.28 377.28 375.28 377.28 387.22"/><path class="cls-1" d="M393.71,375.28h-7.57v19.39h7.57c6.09,0,10.3-4.24,10.3-9.69v-.06C404,379.46,399.8,375.28,393.71,375.28Zm5.84,9.75a5.52,5.52,0,0,1-5.84,5.79h-3.3V379.13h3.3a5.57,5.57,0,0,1,5.84,5.85Z"/><rect class="cls-1" x="408.01" y="375.28" width="4.27" height="19.39"/><path class="cls-1" d="M427.7,375.14h-3.93l-8.31,19.53h4.35l1.77-4.35h8.2l1.77,4.35H436Zm-4.59,11.41,2.57-6.28,2.58,6.28Z"/><path class="cls-1" d="M134.43,326.41h-3.34a21.6,21.6,0,0,0-1.07-3.29,14.2,14.2,0,0,0-1.81-3.2,9.29,9.29,0,0,0-2.71-2.43,7.23,7.23,0,0,0-3.82-1A7.74,7.74,0,0,0,119,317a6.07,6.07,0,0,0-2.07,1.22,5.29,5.29,0,0,0-1.33,1.87,6,6,0,0,0-.46,2.37,7.63,7.63,0,0,0,.56,2.92,11.53,11.53,0,0,0,.51,1.06H64.71v3.38h3.65v9.73H62.21V332.2a6.24,6.24,0,0,0-1.59-4.58A6.06,6.06,0,0,0,56.1,326a6.67,6.67,0,0,0-2.39.42,6,6,0,0,0-1.91,1.17,5.3,5.3,0,0,0-1.25,1.75,5.52,5.52,0,0,0-.44,2.21,6.51,6.51,0,0,0,.32,2.07,7,7,0,0,0,.83,1.69,5.59,5.59,0,0,0,1.14,1.27,6.19,6.19,0,0,0,1.25.8l2.21-2.53a4.11,4.11,0,0,1-1.25-1.19,3.22,3.22,0,0,1-.56-1.91,2.4,2.4,0,0,1,.56-1.73,2,2,0,0,1,1.49-.56c1.21,0,1.81.82,1.81,2.45v7.6h-.28a3,3,0,0,0-1.91.71,2.45,2.45,0,0,0-.87,2,4,4,0,0,0,.41,1.79,4.43,4.43,0,0,0,1.08,1.42,5.11,5.11,0,0,0,1.57.95,4.93,4.93,0,0,0,1.81.34,3.92,3.92,0,0,0,1.65-.28,2.68,2.68,0,0,0,.84-.56v-3h6.15V352h4.35v-22.2h6V352h4.34v-22.2H94.22a10,10,0,0,1,1.08,2,7.39,7.39,0,0,1,.53,2.92,4.22,4.22,0,0,1-.89,2.91,2.83,2.83,0,0,1-2.21,1,2.5,2.5,0,0,1-2-1.13l-.76-1a3.36,3.36,0,0,0-2,.56,1.77,1.77,0,0,0-.79,1.53,3.25,3.25,0,0,0,.26,1.2,8.55,8.55,0,0,0,1,1.61l7.48,11.26,3.86-2.33-6.32-8.28h.41a6.52,6.52,0,0,0,2.39-.47,6,6,0,0,0,2.09-1.34,6.9,6.9,0,0,0,1.47-2.19,7.64,7.64,0,0,0,.56-3,8.5,8.5,0,0,0-.56-3.24,9.61,9.61,0,0,0-1.09-2h18.5v4.95h-6.24a8.07,8.07,0,0,0-5.52,1.81,6.78,6.78,0,0,0-2.08,5.43,14.39,14.39,0,0,0,1.15,5.69,27.44,27.44,0,0,0,2.76,5l3.82-1.69a28.16,28.16,0,0,1-2.42-4.42,10.84,10.84,0,0,1-.88-4.26,4.19,4.19,0,0,1,1-2.9,4.1,4.1,0,0,1,3.16-1.08h5.27V352h4.34v-22.2h6V352h4.34v-22.2h9a7.38,7.38,0,0,1,1,1.47,3.78,3.78,0,0,1,.43,1.79,2.86,2.86,0,0,1-1.25,2.61,7.94,7.94,0,0,1-3.94.89l-1,0a11.57,11.57,0,0,0,.87,4.7,8.79,8.79,0,0,0,5.47,5,11.6,11.6,0,0,0,3.64.58,9.79,9.79,0,0,0,3.31-.46,6.67,6.67,0,0,0,1.83-.91V352h4.35v-22.2h3.41v-3.38H134.43Zm-9.57,0H120.4a9.56,9.56,0,0,1-.69-1.44,6.42,6.42,0,0,1-.36-2.17,2.8,2.8,0,0,1,.68-2,2.53,2.53,0,0,1,1.89-.71,3.15,3.15,0,0,1,1.91.6,6.43,6.43,0,0,1,1.45,1.53,10.7,10.7,0,0,1,1.06,2.05c.3.75.55,1.48.77,2.17Zm21.75,7.16a5.22,5.22,0,0,0-.44-2.17,6.73,6.73,0,0,0-1-1.61h6v11.7a4.71,4.71,0,0,1-1.85,1.31,7.44,7.44,0,0,1-3.09.58,6.17,6.17,0,0,1-4-1.18,4.23,4.23,0,0,1-1.67-2.84,7.36,7.36,0,0,0,4.36-1.65A5.11,5.11,0,0,0,146.61,333.57Z"/><path class="cls-1" d="M201,326.41h-3.72l-2.39-4.54a12.61,12.61,0,0,0-3.46-4.22,8.2,8.2,0,0,0-5.15-1.57,10.73,10.73,0,0,0-2.27.24,6.59,6.59,0,0,0-1.83.65l1.41,3.86a8.18,8.18,0,0,1,1.39-.43,7,7,0,0,1,1.58-.18,5.14,5.14,0,0,1,3.24,1,11.41,11.41,0,0,1,2.55,2.93l1.51,2.29H169.68v3.38h7.44a7.84,7.84,0,0,1,.86,2,9.88,9.88,0,0,1,.34,2.68,4.27,4.27,0,0,1-.78,2.83,2.4,2.4,0,0,1-1.83.91c-.57,0-1-.38-1.25-1.13L174,336a2.68,2.68,0,0,0-2.17.25,1.85,1.85,0,0,0-.89,1.68,6,6,0,0,0,.1,1q.1.52.18.84a15.36,15.36,0,0,0,2.26,5.21,14.1,14.1,0,0,0,8.08,5.71,19.35,19.35,0,0,0,5.06.66,17.49,17.49,0,0,0,4.65-.5,12.37,12.37,0,0,0,2.83-1.1V352h4.34v-22.2h23.89v4.38a7.26,7.26,0,0,0-4.73.25,5.12,5.12,0,0,0-1.9,1.36,7.75,7.75,0,0,0-5.39-2,8.61,8.61,0,0,0-2.78.45,7,7,0,0,0-2.37,1.34,6.62,6.62,0,0,0-1.67,2.29,8.06,8.06,0,0,0-.62,3.28,10.21,10.21,0,0,0,.7,3.82,12.5,12.5,0,0,0,1.85,3.2,14.64,14.64,0,0,0,2.66,2.55,19.71,19.71,0,0,0,3.15,1.93l2.7-3.22a24.83,24.83,0,0,1-2.42-1.38,11.32,11.32,0,0,1-2.13-1.81,9.85,9.85,0,0,1-1.51-2.25,6.49,6.49,0,0,1-.58-2.76,3.73,3.73,0,0,1,1.09-3,4,4,0,0,1,2.69-.95,4.36,4.36,0,0,1,3,1.05,11.19,11.19,0,0,0-.55,2.25,21.92,21.92,0,0,0-.22,3.22h4.3a12.44,12.44,0,0,1,.93-5,2.65,2.65,0,0,1,2.49-1.55,3.92,3.92,0,0,1,.75.06,5.25,5.25,0,0,1,.54.14V352h4.34v-22.2h3.42v-3.38H201Zm-7,14.68a3.54,3.54,0,0,1-2.17.6,3.74,3.74,0,0,1-2.23-.7,2.78,2.78,0,0,1-1-2.43,2.82,2.82,0,0,1,.95-2.31,3.41,3.41,0,0,1,2.27-.79,4.41,4.41,0,0,1,2.17.52Zm0-8a3.67,3.67,0,0,0-1.24-.42,8.39,8.39,0,0,0-1.61-.14,7.47,7.47,0,0,0-2.49.4,6.2,6.2,0,0,0-2,1.16,5.39,5.39,0,0,0-1.34,1.87,6.39,6.39,0,0,0-.48,2.56,6.18,6.18,0,0,0,.54,2.67,5.54,5.54,0,0,0,1.45,1.91,6.4,6.4,0,0,0,2,1.17,7.35,7.35,0,0,0,2.39.4,6.21,6.21,0,0,0,1.71-.2,5.22,5.22,0,0,0,1.06-.44v2.09a7.74,7.74,0,0,1-2.79,1.24,16.5,16.5,0,0,1-4.53.57,14.81,14.81,0,0,1-3.55-.43,12.58,12.58,0,0,1-3.14-1.22,9.88,9.88,0,0,1-2.49-2,8.75,8.75,0,0,1-1.67-2.76,2.16,2.16,0,0,0,.6.08,6.51,6.51,0,0,0,2.55-.48,5.43,5.43,0,0,0,2-1.39,6.2,6.2,0,0,0,1.26-2.17,8.25,8.25,0,0,0,.44-2.79,8.63,8.63,0,0,0-.44-2.86,10,10,0,0,0-1-2.09h12.74Z"/><path class="cls-1" d="M304.9,326.41a1.25,1.25,0,0,1-.58-.41,25.43,25.43,0,0,0-7.52-6.08,11.66,11.66,0,0,0-1.3-.6,22,22,0,0,0-5.62-1.64,17.6,17.6,0,0,0-9.84.82,8.55,8.55,0,0,0-2,1.19,5.32,5.32,0,0,0-2,5.76c.07.28.17.56.3,1H242.56v0h-.05v3.36h.05v0h1.9v.67c0,2.32,0,4.64,0,7,0,3.29,1.49,5.4,4.37,6.37.41.13.83.2,1.36.33l-6.75,5.44,3.61,3.05,8.78-9.23.07,0V352h4.41v-.2h0v-22h5.91V352h4.41V329.85h5.92V352H281V329.85h3.33v-2.47c0-.12,0-.24,0-.36a1.15,1.15,0,0,0,0-.19v-.42h-3.58c-.2-.07-.42-.23-.44-.36a3.35,3.35,0,0,1,1.07-3.56,6.16,6.16,0,0,1,1.8-1,13.27,13.27,0,0,1,7.26-.12,19.91,19.91,0,0,1,6.35,2.67c.37.25.74.51,1.1.79H298a23.64,23.64,0,0,1,3.17,2.78,1.3,1.3,0,0,1,.38,1c0,4.39,0,8.77,0,13.16a1.89,1.89,0,0,1-1.13,2l-.31.16a12.21,12.21,0,0,1-5.93,1,4.6,4.6,0,0,1-2.8-.95,2,2,0,0,1,.33-3.32,3.38,3.38,0,0,1,1.39-.37c1.29-.06,2.58-.06,3.88-.05.36,0,.52-.11.51-.5q0-1.18,0-2.37c0-.38-.12-.5-.5-.51-.94,0-1.89,0-2.83-.11a4.4,4.4,0,0,1-4.27-5,2.26,2.26,0,0,1,1.47-2.11,2.15,2.15,0,0,1,2.29.33,2.26,2.26,0,0,1,.57,2.46,11,11,0,0,1-.63,1.45c.82.34,1.67.67,2.48,1.06a.75.75,0,0,0,1-.25,5.06,5.06,0,0,0,.08-6.31,6.15,6.15,0,0,0-4.33-2.28A6.58,6.58,0,0,0,287,328a6.08,6.08,0,0,0,1.85,9.53l.67.38c-.4.19-.73.31-1,.48a4,4,0,0,0-2.32,3.3,5.62,5.62,0,0,0,3.7,5.93,14.11,14.11,0,0,0,8.59.52,30,30,0,0,0,3-1v4.71h0v.2H306V329.85h16v4.4c0,.12,0,.26-.06.44-.39-.25-.7-.48-1-.66a7.57,7.57,0,0,0-4.67-.77,6.8,6.8,0,0,0-3,1.06,6.61,6.61,0,0,0-3,5.83,7.32,7.32,0,0,0,7.52,7.66,6.06,6.06,0,0,0,3.28-.78c.29-.17.55-.37.95-.64V352h4.41V339.59a3.58,3.58,0,0,1,.51-1.19,3.74,3.74,0,0,1,4-1.54A3,3,0,0,1,333.7,340c.11,1.92-.71,3.31-2.36,3.78a13.35,13.35,0,0,1-2.11.22c-.17,0-.44.14-.46.24-.15.88-.26,1.76-.39,2.64-.05.35.12.44.45.5a10,10,0,0,0,4.07-.2,6.47,6.47,0,0,0,4.66-4,7.77,7.77,0,0,0,.45-4,6.51,6.51,0,0,0-2.06-4.09c-2.47-2.28-7.1-2.24-9.3-.38a1.29,1.29,0,0,1-.24.13v-5h21.74a.6.6,0,0,1,.28.19,7.58,7.58,0,0,1,1.26,6.22,3,3,0,0,1-3,2.3,2.61,2.61,0,0,1-2.2-1.41,1.21,1.21,0,0,0-1.51-.55,2,2,0,0,0-1.69,2.65,5.55,5.55,0,0,0,.65,1.42c2.52,3.84,5.07,7.66,7.6,11.5.2.3.36.34.65.15l2.47-1.51.94-.6c-2.08-2.74-4.12-5.42-6.21-8.15l1.1-.16a6.26,6.26,0,0,0,4.13-2.21,7.32,7.32,0,0,0,1.43-6.39,25.22,25.22,0,0,0-1.2-3.45h6v.7c0,3.13,0,6.26.16,9.39a5.41,5.41,0,0,0,3.33,4.9,9.06,9.06,0,0,0,5.38.63,6.26,6.26,0,0,0,5.6-6.45c0-2.79,0-6.33,0-9.17h4.8V352h4.41V329.85h3.34v-3.44Zm-49,12.73a1.38,1.38,0,0,1-.36.45,5.08,5.08,0,0,1-4.62,1,2.52,2.52,0,0,1-2.06-2.44c-.08-2.75,0-5.5,0-8.32h7.06ZM322,340.57a7.6,7.6,0,0,1-.35,1.77,3.39,3.39,0,0,1-3.65,2c-2.46-.2-3.45-2-3.35-4.32a3.64,3.64,0,0,1,4.17-3.33,5,5,0,0,1,2.71,1,1.3,1.3,0,0,1,.47.61Zm47.07-2.07a8.46,8.46,0,0,1-.35,2.1,1.86,1.86,0,0,1-1.33,1.33c-1.86.57-3.95.17-4.08-2.6s-.07-6.5-.06-9.48h5.83c0,.24,0,.46,0,.54C369.09,333.09,369.11,335.8,369.07,338.5Z"/><path d="M474.17,149a48.12,48.12,0,0,1-1.55-13q0-16.49,6.09-26.19T502,100q22.1,0,26.06,21.23a127.62,127.62,0,0,1,1.73,23v9H512.66V143.09q0-14.51-1.46-19.5c-1-3.34-2.19-5.55-3.63-6.65A9,9,0,0,0,502,115.3q-6.46,0-9.32,4.75t-2.84,14.06q0,9.33,2.58,13.64a45.92,45.92,0,0,0,6.39,8.24q3.8,3.93,4.23,4.44l10.35,11Q532,190.91,532,215.06q0,19.68-6.08,30.07t-23.17,10.4q-20.62,0-26.15-18.12-3.19-10.18-3.19-26.67V195.13h17.34v15.44q0,16.67,2.42,23.17t9,6.52q6.57,0,9.07-3.07t2.89-9.36q.39-6.3.38-14.15,0-15.8-13.89-29.69l-9.92-9.92Q477.37,160.44,474.17,149Z"/><path d="M551.15,101.93H581.7q20.19,0,25.37,16.74a83.15,83.15,0,0,1,3.28,24.59,209.9,209.9,0,0,1-.78,21.14q-1.73,15.54-8.2,22.66t-19.67,7.12H569v59.63H551.15Zm41.34,42.89q0-15.63-2.46-22.18t-9.71-6.56H569v63.25h10.88q7.59,0,10.09-6.64t2.51-24.94Z"/><path d="M626.23,143.18q0-25.89,9.32-35.56,7.34-7.59,21.31-7.59,20.37,0,26.06,16.74,3.38,9.93,3.37,26.41v67q0,23.73-6.65,34.56t-23.25,10.83q-16.62,0-23.39-10.87t-6.77-34.52Zm42.19-1q0-14.58-2.33-20.67t-9.4-6.08q-7.08,0-9.84,6.21t-2.76,20.45v68.26q0,17.35,2.42,23.61t9.75,6.25q7.34,0,9.75-6.34t2.41-23.52Z"/><path d="M709.42,101.93h31.84q13.54,0,19.5,5.61t7.16,19.07q.52,5.52.52,17.21t-3.06,19.64a16.17,16.17,0,0,1-10.83,10.26,11.85,11.85,0,0,1,8.63,6q2.93,5.06,4.14,16.05t1.21,32.71q0,21.71,1.38,25.33H752.13q-1.38-2.77-1.38-51.18,0-16.31-3.19-18.94t-9.67-2.63l-10.61-.6v73.35H709.42Zm41.33,37.19q0-17.52-3.15-20.28t-9.1-2.76H727.28v51.26h11.39q5.18,0,7.59-2t3.45-7.59q1-5.61,1-17.6Z"/><path d="M781.64,101.93h50.14v14.84H816.16v137H798.38v-137H781.64Z"/><path d="M844.9,149a47.7,47.7,0,0,1-1.56-13q0-16.49,6.09-26.19T872.68,100q22.1,0,26.07,21.23a127.73,127.73,0,0,1,1.72,23v9H883.39V143.09q0-14.51-1.47-19.5c-1-3.34-2.19-5.55-3.63-6.65a9,9,0,0,0-5.61-1.64q-6.46,0-9.31,4.75t-2.85,14.06q0,9.33,2.59,13.64a45.4,45.4,0,0,0,6.38,8.24q3.79,3.93,4.23,4.44l10.36,11q18.63,19.52,18.64,43.67,0,19.68-6.09,30.07t-23.17,10.4q-20.62,0-26.15-18.12-3.19-10.18-3.19-26.67V195.13h17.35v15.44q0,16.67,2.41,23.17t9,6.52q6.55,0,9.06-3.07t2.89-9.36q.39-6.3.39-14.15,0-15.8-13.9-29.69l-9.92-9.92Q848.09,160.44,844.9,149Z"/><path d="M981.59,101.93h21.49l25.11,151.88h-16.83l-4.31-29H979.52l-4,29h-17Zm-.09,108.38h23.3l-12-80.25h-.26Z"/><path d="M1086.18,101.93H1104V214.8q0,21.31-6.69,31.07t-23.17,9.75q-16.49,0-23.3-9.75T1044,214.8V101.93h17.86V214.37q0,15.19,1.25,18.16a20.13,20.13,0,0,0,2.64,4.71c1.61,2.18,4.4,3.28,8.37,3.28s6.9-1.21,8.8-3.63,2.92-6,3.06-10.78.22-8.66.22-11.65Z"/><path d="M1117.93,101.93h50.14v14.84h-15.62v137h-17.77v-137h-16.75Z"/><path d="M1225.11,101.93H1243V253.81h-17.87V180.2h-24.33v73.61h-17.86V101.93h17.86v63.68h24.33Z"/><path d="M1266.1,143.18q0-25.89,9.32-35.56,7.33-7.59,21.32-7.59,20.37,0,26.06,16.74,3.36,9.93,3.37,26.41v67q0,23.73-6.65,34.56t-23.26,10.83q-16.6,0-23.38-10.87t-6.78-34.52Zm42.2-1q0-14.58-2.33-20.67t-9.4-6.08q-7.08,0-9.84,6.21T1284,142.05v68.26q0,17.35,2.41,23.61t9.75,6.25q7.33,0,9.76-6.34t2.41-23.52Z"/><path d="M1349.29,101.93h31.84q13.56,0,19.51,5.61t7.16,19.07q.51,5.52.52,17.21t-3.07,19.64a16.13,16.13,0,0,1-10.83,10.26,11.81,11.81,0,0,1,8.63,6q2.94,5.06,4.15,16.05t1.2,32.71q0,21.71,1.38,25.33H1392q-1.38-2.77-1.38-51.18,0-16.31-3.2-18.94t-9.66-2.63l-10.62-.6v73.35h-17.86Zm41.34,37.19q0-17.52-3.15-20.28t-9.11-2.76h-11.22v51.26h11.4q5.17,0,7.59-2t3.45-7.59q1-5.61,1-17.6Z"/><path d="M1432.91,101.93h17.86V253.81h-17.86Z"/><path d="M1467,101.93h50.13v14.84h-15.61v137h-17.78v-137H1467Z"/><path d="M1572.54,101.93h17.51l-24.5,88.1v63.78h-17.87V190l-26.4-88.1h17.34l18,62.13h.35Z"/><path d="M1645.8,143.18q0-25.89,9.32-35.56,7.34-7.59,21.32-7.59,20.36,0,26.06,16.74,3.36,9.93,3.36,26.41v67q0,23.73-6.64,34.56T1676,255.53q-16.61,0-23.38-10.87t-6.78-34.52Zm42.2-1q0-14.58-2.33-20.67t-9.41-6.08q-7.07,0-9.83,6.21t-2.77,20.45v68.26q0,17.35,2.42,23.61t9.75,6.25q7.34,0,9.75-6.34t2.42-23.52Z"/><path d="M1728.9,101.93h45.74v14.93h-28v48h26.23v15.1h-26.23v73.87H1728.9Z"/><path d="M1838.15,101.93H1856V253.81h-17.86Z"/><path d="M1929.11,101.93h15.79V253.81h-13.12L1897.7,149.56l1,38.32v65.93h-16.48V101.93h13.46l35.21,103.38-1.81-43.93Z"/><path d="M1969.67,101.93h28.56q17.43,0,24,10.74t6.56,30.51l.08,66.7q0,23.38-7.16,33.66t-24.07,10.27h-28ZM2011,142.74q0-14.24-3.37-20.45t-11-6.21h-9.15V239.39h9.15q5.17,0,8.11-2.07,6.3-4.48,6.3-24.68Z"/><path d="M2053,101.93h17.86V253.81H2053Z"/><path d="M2113.43,101.93h21.49L2160,253.81h-16.82l-4.32-29h-27.53l-4,29h-17Zm-.08,108.38h23.3l-12-80.25h-.26Z"/><rect class="cls-4" x="475.32" y="288.3" width="1689.98" height="112.64"/><path class="cls-5" d="M523.39,318.19h8.11L541,375.45h-6.34L533,364.52H522.61l-1.49,10.93h-6.41Zm0,40.86h8.79l-4.53-30.26h-.09Z"/><path class="cls-5" d="M554.57,331.82a7.67,7.67,0,0,1,2.84-4.08,8.65,8.65,0,0,1,5.47-1.71,6.36,6.36,0,0,1,5.3,2.65q2,2.65,2,7.86v38.91h-6.67V336.57a5.3,5.3,0,0,0-1.14-3.71,4.1,4.1,0,0,0-3.16-1.24,4.45,4.45,0,0,0-3.35,1.4,5.88,5.88,0,0,0-1.33,4.2v38.23H547.9v-48.8h6.67Z"/><path class="cls-5" d="M601.87,318.19H610l9.46,57.26H613.1l-1.63-10.93H601.09l-1.49,10.93h-6.41Zm0,40.86h8.79l-4.53-30.26H606Z"/><path class="cls-5" d="M641.37,326.65h6.71v48.8h-6.71v-5a8.4,8.4,0,0,1-2.68,4,7.71,7.71,0,0,1-5.11,1.58,7,7,0,0,1-5.5-2.65c-1.53-1.77-2.29-4.48-2.29-8.15V326.65h6.67v37.9q0,5.76,4.2,5.76a4.09,4.09,0,0,0,3.53-1.63,7.1,7.1,0,0,0,1.18-4.29Z"/><path class="cls-5" d="M658.78,318.19h6.67V327h5.27V332h-5.27v35.63c0,1.26.29,2,.88,2.36a12.44,12.44,0,0,0,4.46.47v5.3H666.2c-3.08,0-5.09-.55-6-1.67s-1.4-3.08-1.4-5.87V332h-4.46V327h4.46Z"/><path class="cls-5" d="M676.77,342q0-11.88,5.47-14.81a10.83,10.83,0,0,1,5.14-1.17q7.65,0,9.76,6.15a31.28,31.28,0,0,1,1.3,9.83v17.27q0,10.29-2.76,13.51c-1.85,2.14-4.51,3.22-8,3.22-5.09,0-8.34-2.17-9.72-6.51a35.1,35.1,0,0,1-1.18-10.22Zm15-1.34q0-7-2-8.46a3.44,3.44,0,0,0-2.12-.62,3.23,3.23,0,0,0-3.4,2.38,22.89,22.89,0,0,0-.76,6.7v20.47c0,4.79.67,7.69,2,8.68a3.22,3.22,0,0,0,2,.62h.13a3.19,3.19,0,0,0,3.34-2.42,24,24,0,0,0,.76-6.88Z"/><path class="cls-5" d="M713.93,331.82a7.69,7.69,0,0,1,2.85-4.08,8.61,8.61,0,0,1,5.47-1.71,6.38,6.38,0,0,1,5.3,2.65q2,2.65,2,7.86v38.91h-6.67V336.57a5.3,5.3,0,0,0-1.14-3.71,4.09,4.09,0,0,0-3.15-1.24,4.42,4.42,0,0,0-3.35,1.4,5.88,5.88,0,0,0-1.34,4.2v38.23h-6.67v-48.8h6.67Z"/><path class="cls-5" d="M738.07,342q0-11.88,5.47-14.81a10.83,10.83,0,0,1,5.14-1.17q7.65,0,9.76,6.15a31.28,31.28,0,0,1,1.3,9.83v17.27q0,10.29-2.76,13.51c-1.85,2.14-4.51,3.22-8,3.22-5.09,0-8.34-2.17-9.72-6.51a35.1,35.1,0,0,1-1.18-10.22Zm15-1.34q0-7-2-8.46a3.44,3.44,0,0,0-2.12-.62,3.23,3.23,0,0,0-3.4,2.38,22.89,22.89,0,0,0-.76,6.7v20.47c0,4.79.67,7.69,2,8.68a3.22,3.22,0,0,0,2,.62h.13a3.19,3.19,0,0,0,3.34-2.42,24,24,0,0,0,.76-6.88Z"/><path class="cls-5" d="M775.23,331.72a7.77,7.77,0,0,1,2.7-4.08,7.59,7.59,0,0,1,4.91-1.61,6.76,6.76,0,0,1,6.9,4.94,9.68,9.68,0,0,1,3.37-3.61A9,9,0,0,1,798,326a6.85,6.85,0,0,1,5.89,2.76q2,2.77,2,8.14v38.52h-6.67V336.73q0-4.94-3.9-4.94c-3,0-4.53,1.5-4.75,4.52v39.14h-6.7V336.7c0-3.28-1.28-4.91-3.84-4.91a4.35,4.35,0,0,0-3.58,1.51,6.34,6.34,0,0,0-1.24,4.15v38h-6.67v-48.8h6.67Z"/><path class="cls-5" d="M814.41,342q0-11.88,5.46-14.81a10.86,10.86,0,0,1,5.14-1.17q7.65,0,9.76,6.15a31.25,31.25,0,0,1,1.31,9.83v17.27q0,10.29-2.77,13.51c-1.84,2.14-4.51,3.22-8,3.22q-7.65,0-9.73-6.51a35.5,35.5,0,0,1-1.17-10.22Zm15-1.34q0-7-2-8.46a3.42,3.42,0,0,0-2.12-.62,3.24,3.24,0,0,0-3.4,2.38,22.89,22.89,0,0,0-.76,6.7v20.47c0,4.79.67,7.69,2,8.68a3.17,3.17,0,0,0,2,.62h.13a3.18,3.18,0,0,0,3.34-2.42,24,24,0,0,0,.76-6.88Z"/><path class="cls-5" d="M860.15,326.65h6.71v48.8h-6.71v-5a8.4,8.4,0,0,1-2.68,4,7.71,7.71,0,0,1-5.11,1.58,7,7,0,0,1-5.5-2.65c-1.53-1.77-2.29-4.48-2.29-8.15V326.65h6.67v37.9q0,5.76,4.2,5.76a4.09,4.09,0,0,0,3.53-1.63,7.1,7.1,0,0,0,1.18-4.29Z"/><path class="cls-5" d="M895.85,364.26q0,11.83-10.45,11.84c-3.51,0-6.15-1.11-7.9-3.35s-2.64-5.82-2.64-10.77V358.3h6.47V362q0,8.46,3.84,8.46a3.43,3.43,0,0,0,3.05-1.37c.61-.91.92-2.49.92-4.75q0-5.3-4.88-10.09l-1.69-1.61c-.89-.83-1.48-1.39-1.76-1.67q-6.34-6.06-6.34-13.37c0-3.87.91-6.74,2.73-8.64s4.42-2.85,7.78-2.85a10,10,0,0,1,5.56,1.4q4.5,2.93,4.49,13.83v2.34h-6.34v-3.38a18.44,18.44,0,0,0-.83-6.37,2.92,2.92,0,0,0-2.85-2.09,3.64,3.64,0,0,0-3,1.27c-.67.84-1,2.27-1,4.29q0,4.75,4.45,9.18l3.52,3.28Q895.85,356.43,895.85,364.26Z"/><path class="cls-5" d="M919,317.57h6.67v12.95a5.7,5.7,0,0,1,2.31-3.18,6.49,6.49,0,0,1,3.84-1.28q6,0,7.74,5.95a34.28,34.28,0,0,1,1.14,9.6v18.78q0,9-2.47,12.59a6.77,6.77,0,0,1-5.93,2.89,6.69,6.69,0,0,1-6.63-4.52v4.1H919Zm15,23.16a24.55,24.55,0,0,0-.44-6.08,9.88,9.88,0,0,0-1-2.11,2.27,2.27,0,0,0-2.05-.88,5.9,5.9,0,0,0-2.21.32c-1.74.78-2.6,3.71-2.6,8.79v19.78a23.16,23.16,0,0,0,.89,7.6,3.35,3.35,0,0,0,3.39,2.29,3.15,3.15,0,0,0,3.27-2.28,26.84,26.84,0,0,0,.78-7.77Z"/><path class="cls-5" d="M948.69,342q0-11.88,5.46-14.81a10.86,10.86,0,0,1,5.14-1.17q7.65,0,9.76,6.15a31.25,31.25,0,0,1,1.31,9.83v17.27q0,10.29-2.77,13.51c-1.84,2.14-4.51,3.22-8,3.22q-7.65,0-9.73-6.51a35.5,35.5,0,0,1-1.17-10.22Zm15-1.34q0-7-2-8.46a3.42,3.42,0,0,0-2.12-.62,3.24,3.24,0,0,0-3.4,2.38,22.89,22.89,0,0,0-.76,6.7v20.47c0,4.79.67,7.69,2,8.68a3.17,3.17,0,0,0,2,.62h.13a3.18,3.18,0,0,0,3.34-2.42,24,24,0,0,0,.76-6.88Z"/><path class="cls-5" d="M993.46,317.57h6.7v57.88h-6.7v-4.1a6.69,6.69,0,0,1-6.74,4.52q-6.74,0-7.9-8.88a55.69,55.69,0,0,1-.4-7.16V341.38q0-8.81,2.87-12.46a7.75,7.75,0,0,1,6.44-2.86,5.81,5.81,0,0,1,3.37,1.07,7,7,0,0,1,2.36,2.77Zm0,23.72a22.72,22.72,0,0,0-.86-7.39,3.57,3.57,0,0,0-6.64,0,23.42,23.42,0,0,0-.86,7.53v19.72c0,4.77.63,7.66,1.88,8.65a3.53,3.53,0,0,0,2.22.62,3.48,3.48,0,0,0,2.34-.78q1.92-1.62,1.92-8.78Z"/><path class="cls-5" d="M1023.07,326.65h6.44l-8.1,49.74c-.39,2.72-.89,4.48-1.5,5.31a4.1,4.1,0,0,1-2,1.58,10.34,10.34,0,0,1-2.89.34h-6.54v-5h2.31c2.27,0,3.53-.27,3.77-.79a2.31,2.31,0,0,0,.29-1.4,16.67,16.67,0,0,0-.26-2.66l-8-47.08h6.48l3.51,25.37,1.43,13.21h.59l1.27-13.21Z"/><path class="cls-5" d="M1067.06,326.65h6.7v48.8h-6.7v-5a8.41,8.41,0,0,1-2.69,4,7.71,7.71,0,0,1-5.11,1.58,7,7,0,0,1-5.5-2.65c-1.52-1.77-2.29-4.48-2.29-8.15V326.65h6.67v37.9q0,5.76,4.2,5.76a4.08,4.08,0,0,0,3.53-1.63,7.1,7.1,0,0,0,1.19-4.29Z"/><path class="cls-5" d="M1090,331.82a7.69,7.69,0,0,1,2.85-4.08,8.61,8.61,0,0,1,5.47-1.71,6.37,6.37,0,0,1,5.3,2.65q2,2.65,2,7.86v38.91h-6.67V336.57a5.3,5.3,0,0,0-1.14-3.71,4.09,4.09,0,0,0-3.15-1.24,4.42,4.42,0,0,0-3.35,1.4,5.88,5.88,0,0,0-1.34,4.2v38.23h-6.67v-48.8H1090Z"/><path class="cls-5" d="M1129.14,317.57h6.7v57.88h-6.7v-4.1a6.69,6.69,0,0,1-6.74,4.52q-6.74,0-7.91-8.88a55.89,55.89,0,0,1-.39-7.16V341.38q0-8.81,2.87-12.46a7.75,7.75,0,0,1,6.44-2.86,5.84,5.84,0,0,1,3.37,1.07,7.11,7.11,0,0,1,2.36,2.77Zm0,23.72a22.72,22.72,0,0,0-.86-7.39,3.57,3.57,0,0,0-6.64,0,23.14,23.14,0,0,0-.86,7.53v19.72c0,4.77.63,7.66,1.88,8.65a4.08,4.08,0,0,0,4.56-.16q1.92-1.62,1.92-8.78Z"/><path class="cls-5" d="M1144.62,341.78q0-9.24,3.32-12.86,2.61-2.87,7.68-2.86,7.35,0,9.24,6.34a35.68,35.68,0,0,1,1,9.67v9.21h-14.57V361c0,4.23.33,6.87,1,7.91a3.51,3.51,0,0,0,3.18,1.56,2.84,2.84,0,0,0,2.92-1.82,11.06,11.06,0,0,0,.76-3.95q0-2.13,0-3.6v-3.93h6.54v2.08c0,5.18-.36,8.82-1.09,10.9a8.2,8.2,0,0,1-3.3,4.5,10.07,10.07,0,0,1-5.48,1.39,13.78,13.78,0,0,1-5.24-.83,8.23,8.23,0,0,1-3.12-2.2,12.23,12.23,0,0,1-2-4.36,37.82,37.82,0,0,1-.88-9.63Zm14.61-1.24a28.7,28.7,0,0,0-.37-6.28,7.45,7.45,0,0,0-1-1.89,2.46,2.46,0,0,0-2.12-.81,3.45,3.45,0,0,0-3.7,2.46,22.76,22.76,0,0,0-.78,6.75v6h7.93Z"/><path class="cls-5" d="M1189.43,326.06a27,27,0,0,1,.13,4.23l0,1.43q-5.87,0-8.4,4.07v39.66h-6.7v-48.8h6.7v5.43a8.26,8.26,0,0,1,3-4.44A8.7,8.7,0,0,1,1189.43,326.06Z"/><path class="cls-5" d="M1213.15,318.19h6.67V327h5.27V332h-5.27v35.63c0,1.26.29,2,.88,2.36a12.37,12.37,0,0,0,4.45.47v5.3h-4.58c-3.09,0-5.09-.55-6-1.67s-1.4-3.08-1.4-5.87V332h-4.46V327h4.46Z"/><path class="cls-5" d="M1231.89,317.57h6.67v14.25a7.93,7.93,0,0,1,2.83-4.08,8.43,8.43,0,0,1,5.42-1.71,6.42,6.42,0,0,1,5.32,2.65c1.36,1.77,2,4.39,2,7.86v38.91h-6.67V337.09c0-3.54-1.34-5.3-4-5.3a4.55,4.55,0,0,0-3.56,1.54,6.68,6.68,0,0,0-1.38,4.57v37.55h-6.67Z"/><path class="cls-5" d="M1262.67,341.78q0-9.24,3.32-12.86,2.6-2.87,7.68-2.86,7.35,0,9.24,6.34a36.09,36.09,0,0,1,1,9.67v9.21h-14.58V361q0,6.35,1,7.91a3.52,3.52,0,0,0,3.19,1.56,2.83,2.83,0,0,0,2.91-1.82,11.07,11.07,0,0,0,.77-3.95q0-2.13,0-3.6v-3.93h6.54v2.08c0,5.18-.37,8.82-1.09,10.9a8.26,8.26,0,0,1-3.31,4.5,10.07,10.07,0,0,1-5.48,1.39,13.81,13.81,0,0,1-5.24-.83,8.23,8.23,0,0,1-3.12-2.2,12.07,12.07,0,0,1-2-4.36,37.36,37.36,0,0,1-.88-9.63Zm14.61-1.24a28.41,28.41,0,0,0-.38-6.28,7.45,7.45,0,0,0-1-1.89,2.43,2.43,0,0,0-2.11-.81,3.46,3.46,0,0,0-3.71,2.46,23.09,23.09,0,0,0-.78,6.75v6h7.94Z"/><path class="cls-5" d="M1333.11,318.19h8.43v57.26h-6v-23l.55-21.41-7.77,44.28h-6.09l-8.1-44.28.56,21.41v23h-6V318.19h8.4l8.2,47.08Z"/><path class="cls-5" d="M1351.1,316h6.71v6.12h-6.71Zm0,10.61h6.67v48.8h-6.67Z"/><path class="cls-5" d="M1374,331.82a7.75,7.75,0,0,1,2.85-4.08,8.63,8.63,0,0,1,5.47-1.71,6.37,6.37,0,0,1,5.3,2.65q2,2.65,2,7.86v38.91H1383V336.57a5.3,5.3,0,0,0-1.14-3.71,4.07,4.07,0,0,0-3.15-1.24,4.44,4.44,0,0,0-3.35,1.4,5.88,5.88,0,0,0-1.34,4.2v38.23h-6.67v-48.8H1374Z"/><path class="cls-5" d="M1399,316h6.7v6.12H1399Zm0,10.61h6.67v48.8H1399Z"/><path class="cls-5" d="M1434.76,364.26q0,11.83-10.45,11.84c-3.51,0-6.15-1.11-7.9-3.35s-2.64-5.82-2.64-10.77V358.3h6.48V362c0,5.64,1.27,8.46,3.84,8.46a3.42,3.42,0,0,0,3-1.37c.62-.91.92-2.49.92-4.75q0-5.3-4.88-10.09l-1.69-1.61c-.89-.83-1.47-1.39-1.76-1.67q-6.33-6.06-6.34-13.37c0-3.87.91-6.74,2.73-8.64s4.42-2.85,7.78-2.85a10,10,0,0,1,5.56,1.4q4.5,2.93,4.49,13.83v2.34h-6.34v-3.38a18.44,18.44,0,0,0-.83-6.37,2.91,2.91,0,0,0-2.85-2.09,3.61,3.61,0,0,0-3,1.27c-.68.84-1,2.27-1,4.29q0,4.75,4.45,9.18l3.52,3.28Q1434.76,356.43,1434.76,364.26Z"/><path class="cls-5" d="M1442.66,318.19h6.67V327h5.27V332h-5.27v35.63c0,1.26.3,2,.88,2.36a12.44,12.44,0,0,0,4.46.47v5.3h-4.59c-3.08,0-5.08-.55-6-1.67s-1.4-3.08-1.4-5.87V332h-4.45V327h4.45Z"/><path class="cls-5" d="M1476.4,326.06a24.53,24.53,0,0,1,.14,4.23l0,1.43q-5.85,0-8.39,4.07v39.66h-6.7v-48.8h6.7v5.43a8.15,8.15,0,0,1,3-4.44A8.67,8.67,0,0,1,1476.4,326.06Z"/><path class="cls-5" d="M1496,326.65h6.44l-8.1,49.74c-.39,2.72-.89,4.48-1.5,5.31a4.08,4.08,0,0,1-2,1.58,10.42,10.42,0,0,1-2.9.34h-6.54v-5h2.31c2.28,0,3.54-.27,3.77-.79a2.29,2.29,0,0,0,.3-1.4,17.93,17.93,0,0,0-.26-2.66l-8-47.08H1486l3.51,25.37,1.44,13.21h.58l1.27-13.21Z"/><path class="cls-5" d="M1523.94,342q0-11.88,5.47-14.81a10.83,10.83,0,0,1,5.14-1.17q7.65,0,9.76,6.15a31.28,31.28,0,0,1,1.3,9.83v17.27q0,10.29-2.77,13.51c-1.84,2.14-4.51,3.22-8,3.22q-7.65,0-9.73-6.51a35.5,35.5,0,0,1-1.17-10.22Zm15-1.34q0-7-2-8.46a3.39,3.39,0,0,0-2.11-.62,3.23,3.23,0,0,0-3.4,2.38,22.84,22.84,0,0,0-.77,6.7v20.47c0,4.79.68,7.69,2,8.68a3.2,3.2,0,0,0,2,.62h.13a3.18,3.18,0,0,0,3.33-2.42,24,24,0,0,0,.77-6.88Z"/><path class="cls-5" d="M1556.15,326.16q0-8.82,7.55-8.82a15.55,15.55,0,0,1,4.85.68v4.66a19.13,19.13,0,0,0-2.83-.2,2.7,2.7,0,0,0-2.21.83,4,4,0,0,0-.69,2.59v2.63h5.73v4.92h-5.73v42h-6.67v-42H1552v-4.92h4.19Z"/><path class="cls-5" d="M1606.26,318.19h6.61l-9.25,33.22v24h-6.73v-24l-10-33.22h6.54l6.77,23.42h.13Z"/><path class="cls-5" d="M1617.52,342q0-11.88,5.46-14.81a10.87,10.87,0,0,1,5.15-1.17q7.63,0,9.76,6.15a31.58,31.58,0,0,1,1.3,9.83v17.27q0,10.29-2.77,13.51c-1.84,2.14-4.51,3.22-8,3.22q-7.65,0-9.73-6.51a35.5,35.5,0,0,1-1.17-10.22Zm15-1.34c0-4.64-.67-7.46-2-8.46a3.41,3.41,0,0,0-2.11-.62A3.23,3.23,0,0,0,1625,334a22.84,22.84,0,0,0-.77,6.7v20.47c0,4.79.67,7.69,2,8.68a3.17,3.17,0,0,0,2,.62h.14a3.18,3.18,0,0,0,3.33-2.42,24,24,0,0,0,.77-6.88Z"/><path class="cls-5" d="M1663.26,326.65H1670v48.8h-6.71v-5a8.4,8.4,0,0,1-2.68,4,7.71,7.71,0,0,1-5.11,1.58,7,7,0,0,1-5.5-2.65c-1.53-1.77-2.29-4.48-2.29-8.15V326.65h6.67v37.9q0,5.76,4.2,5.76a4.08,4.08,0,0,0,3.53-1.63,7.1,7.1,0,0,0,1.18-4.29Z"/><path class="cls-5" d="M1680.67,318.19h6.67V327h5.27V332h-5.27v35.63c0,1.26.29,2,.88,2.36a12.44,12.44,0,0,0,4.46.47v5.3h-4.59c-3.08,0-5.09-.55-6-1.67s-1.4-3.08-1.4-5.87V332h-4.46V327h4.46Z"/><path class="cls-5" d="M1699.41,317.57h6.67v14.25a8,8,0,0,1,2.84-4.08,8.4,8.4,0,0,1,5.41-1.71,6.4,6.4,0,0,1,5.32,2.65q2.05,2.65,2,7.86v38.91H1715V337.09c0-3.54-1.33-5.3-4-5.3a4.55,4.55,0,0,0-3.56,1.54,6.68,6.68,0,0,0-1.39,4.57v37.55h-6.67Z"/><path class="cls-5" d="M1753.36,318.19h8.1l9.47,57.26h-6.34L1763,364.52h-10.38l-1.5,10.93h-6.41Zm0,40.86h8.78l-4.52-30.26h-.1Z"/><path class="cls-5" d="M1779.59,326.16q0-8.82,7.54-8.82a15.55,15.55,0,0,1,4.85.68v4.66a19.13,19.13,0,0,0-2.83-.2,2.7,2.7,0,0,0-2.21.83,4,4,0,0,0-.69,2.59v2.63H1792v4.92h-5.73v42h-6.66v-42h-4.2v-4.92h4.2Z"/><path class="cls-5" d="M1799.86,326.16q0-8.82,7.54-8.82a15.55,15.55,0,0,1,4.85.68v4.66a19.13,19.13,0,0,0-2.83-.2,2.7,2.7,0,0,0-2.21.83,4,4,0,0,0-.68,2.59v2.63h5.72v4.92h-5.72v42h-6.67v-42h-4.2v-4.92h4.2Z"/><path class="cls-5" d="M1818.34,340.77q0-8.85,2.76-11.78c1.85-1.95,4.47-2.93,7.88-2.93s5.87.82,7.4,2.47,2.46,4.3,2.81,7.94c.15,1.56.23,3.48.23,5.76v33.22h-6.7v-4.23a6.71,6.71,0,0,1-2.28,3.21,6.64,6.64,0,0,1-4.36,1.44q-8.3,0-8.36-12.95v-4.75A11.39,11.39,0,0,1,1820,351q2.29-3,12.67-6.78v-3.78c0-4.19-.3-6.7-.91-7.55a3.56,3.56,0,0,0-3.1-1.27,2.88,2.88,0,0,0-3,1.92,21.64,21.64,0,0,0-.75,6.93v1.7h-6.63Zm14.34,7.77a34.32,34.32,0,0,0-5.46,2.87,6.89,6.89,0,0,0-2.07,2.36,10.39,10.39,0,0,0-.7,4.44v4.52a16.76,16.76,0,0,0,.75,6,2.62,2.62,0,0,0,2.57,1.74,4.83,4.83,0,0,0,3.13-1.05,5.71,5.71,0,0,0,1.78-2.3Z"/><path class="cls-5" d="M1848.63,316h6.7v6.12h-6.7Zm0,10.61h6.67v48.8h-6.67Z"/><path class="cls-5" d="M1879.9,326.06a27,27,0,0,1,.13,4.23l0,1.43q-5.85,0-8.39,4.07v39.66h-6.7v-48.8h6.7v5.43a8.2,8.2,0,0,1,3-4.44A8.7,8.7,0,0,1,1879.9,326.06Z"/><path class="cls-5" d="M1905.54,364.26q0,11.83-10.45,11.84c-3.51,0-6.15-1.11-7.9-3.35s-2.64-5.82-2.64-10.77V358.3H1891V362q0,8.46,3.84,8.46a3.43,3.43,0,0,0,3.05-1.37c.61-.91.92-2.49.92-4.75q0-5.3-4.88-10.09l-1.69-1.61c-.89-.83-1.47-1.39-1.76-1.67q-6.35-6.06-6.34-13.37c0-3.87.91-6.74,2.73-8.64s4.42-2.85,7.78-2.85a10,10,0,0,1,5.56,1.4q4.5,2.93,4.49,13.83v2.34h-6.34v-3.38a18.44,18.44,0,0,0-.83-6.37,2.91,2.91,0,0,0-2.85-2.09,3.64,3.64,0,0,0-3,1.27c-.67.84-1,2.27-1,4.29q0,4.75,4.45,9.18l3.52,3.28Q1905.54,356.43,1905.54,364.26Z"/><path class="cls-5" d="M1955.8,353a50.62,50.62,0,0,0-6.11,10.58q5.18,11.39,5.37,11.87h-6c-.35-.84-1.19-2.72-2.54-5.63a15.16,15.16,0,0,1-4.29,4.65,11.59,11.59,0,0,1-6.58,1.63,8.74,8.74,0,0,1-6.91-3.2q-2.74-3.21-2.75-9.07a19.23,19.23,0,0,1,2.57-10.11,63.91,63.91,0,0,1,6.54-8.85q-5-12-5-16.17,0-5.51,2.59-8.37t7.53-2.86c3.29,0,5.67.94,7.12,2.83s2.18,4.53,2.18,7.94a17.81,17.81,0,0,1-2.19,9,70.38,70.38,0,0,1-5.58,8.19q1.85,4.55,5.2,12a53.1,53.1,0,0,1,6-9.11Zm-12.1,10.83q-3.81-8-6.08-13.2-5.5,7.32-5.5,13.55t5,6.23a4.45,4.45,0,0,0,3.4-1.61A23.44,23.44,0,0,0,1943.7,363.83Zm-4.23-24.1q4.79-6.06,4.78-11.29a10.52,10.52,0,0,0-.76-4.72,3,3,0,0,0-2.93-1.4,3.56,3.56,0,0,0-3,1.17,4.8,4.8,0,0,0-1,2.37,24.74,24.74,0,0,0-.13,2.71Q1936.38,331.53,1939.47,339.73Z"/><path class="cls-5" d="M1976.17,335.92a18.07,18.07,0,0,1-.58-4.91q0-6.22,2.29-9.88t8.77-3.66q8.32,0,9.83,8a48.52,48.52,0,0,1,.65,8.69v3.39h-6.45v-3.84a31.4,31.4,0,0,0-.55-7.36,4.75,4.75,0,0,0-1.37-2.5,3.39,3.39,0,0,0-2.11-.62,3.77,3.77,0,0,0-3.51,1.79,13.75,13.75,0,0,0-.1,10.44,16.9,16.9,0,0,0,2.41,3.11q1.42,1.49,1.59,1.68l3.91,4.13q7,7.35,7,16.46,0,7.43-2.29,11.34t-8.74,3.92q-7.77,0-9.86-6.83a34.59,34.59,0,0,1-1.2-10.06v-5.88h6.54v5.82q0,6.28.91,8.74a3.38,3.38,0,0,0,3.38,2.45c1.65,0,2.79-.38,3.42-1.15a6.15,6.15,0,0,0,1.09-3.53c.1-1.59.15-3.36.15-5.34q0-6-5.24-11.19l-3.74-3.74Q1977.38,340.25,1976.17,335.92Z"/><path class="cls-5" d="M2012,330.71a6.81,6.81,0,0,1,2.77-3.37,7.57,7.57,0,0,1,3.94-1.12q5.82,0,7.38,6a39.64,39.64,0,0,1,1,9.67v17.67q0,9.72-2.46,13.08a8.08,8.08,0,0,1-6.91,3.35,5.52,5.52,0,0,1-3.32-1.11,7.88,7.88,0,0,1-2.38-2.73v12.17h-6.67V326.65H2012Zm8.37,10.06v-2.44a11.42,11.42,0,0,0-.43-3.65,7.46,7.46,0,0,0-.88-1.85,2.83,2.83,0,0,0-2.45-1.17,4.43,4.43,0,0,0-2.52.61q-2.08,1.41-2.09,8.5v20a21.81,21.81,0,0,0,.9,7.42,3.32,3.32,0,0,0,3.35,2.24,3.21,3.21,0,0,0,3.29-2.28,24.78,24.78,0,0,0,.83-7.64Z"/><path class="cls-5" d="M2035.07,342q0-11.88,5.46-14.81a10.86,10.86,0,0,1,5.14-1.17q7.65,0,9.76,6.15a31.25,31.25,0,0,1,1.31,9.83v17.27q0,10.29-2.77,13.51c-1.84,2.14-4.51,3.22-8,3.22q-7.65,0-9.73-6.51a35.5,35.5,0,0,1-1.17-10.22Zm15-1.34q0-7-2-8.46a3.42,3.42,0,0,0-2.12-.62,3.24,3.24,0,0,0-3.4,2.38,22.89,22.89,0,0,0-.76,6.7v20.47c0,4.79.67,7.69,2,8.68a3.17,3.17,0,0,0,2,.62h.13a3.18,3.18,0,0,0,3.34-2.42,24,24,0,0,0,.76-6.88Z"/><path class="cls-5" d="M2080.55,326.06a25.44,25.44,0,0,1,.13,4.23l0,1.43q-5.85,0-8.4,4.07v39.66h-6.7v-48.8h6.7v5.43a8.26,8.26,0,0,1,3-4.44A8.72,8.72,0,0,1,2080.55,326.06Z"/><path class="cls-5" d="M2087.91,318.19h6.67V327h5.27V332h-5.27v35.63c0,1.26.29,2,.87,2.36a12.47,12.47,0,0,0,4.46.47v5.3h-4.59c-3.08,0-5.08-.55-6-1.67s-1.39-3.08-1.39-5.87V332h-4.46V327h4.46Z"/><path class="cls-5" d="M2126.1,364.26q0,11.83-10.44,11.84c-3.51,0-6.15-1.11-7.91-3.35s-2.63-5.82-2.63-10.77V358.3h6.47V362q0,8.46,3.84,8.46a3.4,3.4,0,0,0,3-1.37c.62-.91.93-2.49.93-4.75q0-5.3-4.88-10.09l-1.69-1.61c-.89-.83-1.48-1.39-1.76-1.67q-6.34-6.06-6.34-13.37c0-3.87.91-6.74,2.73-8.64s4.41-2.85,7.78-2.85a10.05,10.05,0,0,1,5.56,1.4q4.48,2.93,4.49,13.83v2.34H2119v-3.38a18.44,18.44,0,0,0-.83-6.37,2.92,2.92,0,0,0-2.85-2.09,3.63,3.63,0,0,0-3,1.27c-.67.84-1,2.27-1,4.29q0,4.75,4.45,9.18l3.52,3.28Q2126.1,356.43,2126.1,364.26Z"/></svg>